<mxfile host="app.diagrams.net" modified="2023-12-20T17:08:19.106Z" agent="Mozilla/5.0 (Macintosh; Intel Mac OS X 10_15_7) AppleWebKit/537.36 (KHTML, like Gecko) Chrome/120.0.0.0 Safari/537.36" etag="eAoGf-WEwnQPnUHjg9Yk" version="22.1.11" type="device">
  <diagram name="Página-1" id="54LPPitG9TOgVg8rzi4f">
    <mxGraphModel dx="954" dy="606" grid="1" gridSize="5" guides="1" tooltips="1" connect="1" arrows="1" fold="1" page="1" pageScale="1" pageWidth="1200" pageHeight="1920" math="0" shadow="0">
      <root>
        <mxCell id="0" />
        <mxCell id="1" parent="0" />
        <mxCell id="cvzFAE37gmTNGSHkUlID-195" value="" style="shape=ext;double=1;rounded=0;whiteSpace=wrap;html=1;strokeColor=#7EA6E0;fillColor=#7EA6E0;" parent="1" vertex="1">
          <mxGeometry x="35" y="459" width="453" height="70" as="geometry" />
        </mxCell>
        <mxCell id="cvzFAE37gmTNGSHkUlID-206" value="" style="rounded=0;whiteSpace=wrap;html=1;fillColor=none;strokeColor=#B5739D;" parent="1" vertex="1">
          <mxGeometry x="654" y="500" width="65.5" height="30" as="geometry" />
        </mxCell>
        <mxCell id="cvzFAE37gmTNGSHkUlID-183" value="" style="rounded=0;whiteSpace=wrap;html=1;fillColor=none;strokeColor=#7EA6E0;" parent="1" vertex="1">
          <mxGeometry x="618.5" y="421" width="75" height="32" as="geometry" />
        </mxCell>
        <mxCell id="cvzFAE37gmTNGSHkUlID-1" value="&lt;font size=&quot;1&quot; face=&quot;Tahoma&quot;&gt;&lt;b style=&quot;font-size: 20px;&quot;&gt;FINANZAS PERSONALES 101 ~ v1.0&amp;nbsp;&amp;nbsp;&lt;/b&gt;&lt;/font&gt;" style="text;html=1;strokeColor=none;fillColor=none;align=center;verticalAlign=middle;whiteSpace=wrap;rounded=0;" parent="1" vertex="1">
          <mxGeometry x="18" y="15" width="820" height="38" as="geometry" />
        </mxCell>
        <mxCell id="cvzFAE37gmTNGSHkUlID-2" value="&lt;div style=&quot;&quot;&gt;&lt;span style=&quot;font-size: 11px; color: rgb(255, 115, 99); background-color: initial;&quot;&gt;&lt;u style=&quot;&quot;&gt;&lt;b&gt;Disclaimer:&lt;/b&gt;&lt;/u&gt;&lt;/span&gt;&lt;/div&gt;&lt;font style=&quot;font-size: 11px;&quot;&gt;&lt;div style=&quot;&quot;&gt;Este diagrama de flujo tiene únicamente fines informativos y el autor no asume ninguna responsabilidad por sus acciones.&lt;/div&gt;&lt;div style=&quot;&quot;&gt;No es un consejo financiero y no debe tomarse como tal.&lt;/div&gt;&lt;div style=&quot;&quot;&gt;Haga siempre su propia investigación y trate de tomar decisiones informadas.&lt;/div&gt;&lt;/font&gt;" style="text;html=1;strokeColor=#FF7363;fillColor=none;align=center;verticalAlign=middle;whiteSpace=wrap;rounded=0;strokeWidth=3;" parent="1" vertex="1">
          <mxGeometry x="31" y="780" width="350" height="92" as="geometry" />
        </mxCell>
        <mxCell id="cvzFAE37gmTNGSHkUlID-3" value="Autor:&amp;nbsp; u/Jairuss14" style="text;html=1;strokeColor=none;fillColor=none;align=center;verticalAlign=middle;whiteSpace=wrap;rounded=0;" parent="1" vertex="1">
          <mxGeometry x="31" y="872" width="110" height="30" as="geometry" />
        </mxCell>
        <mxCell id="cvzFAE37gmTNGSHkUlID-4" value="r/SpainFIRE" style="text;html=1;strokeColor=none;fillColor=none;align=center;verticalAlign=middle;whiteSpace=wrap;rounded=0;" parent="1" vertex="1">
          <mxGeometry x="39" y="890" width="60" height="30" as="geometry" />
        </mxCell>
        <mxCell id="cvzFAE37gmTNGSHkUlID-5" value="Fecha de creación: 20/12/2023" style="text;html=1;strokeColor=none;fillColor=none;align=center;verticalAlign=middle;whiteSpace=wrap;rounded=0;" parent="1" vertex="1">
          <mxGeometry x="155" y="872" width="185" height="30" as="geometry" />
        </mxCell>
        <mxCell id="cvzFAE37gmTNGSHkUlID-6" value="Fecha de última modificación: 20/12/2023" style="text;html=1;strokeColor=none;fillColor=none;align=center;verticalAlign=middle;whiteSpace=wrap;rounded=0;" parent="1" vertex="1">
          <mxGeometry x="158" y="888" width="235" height="30" as="geometry" />
        </mxCell>
        <mxCell id="cvzFAE37gmTNGSHkUlID-7" value="" style="endArrow=none;html=1;rounded=0;" parent="1" edge="1">
          <mxGeometry width="50" height="50" relative="1" as="geometry">
            <mxPoint x="48" y="55" as="sourcePoint" />
            <mxPoint x="818" y="56" as="targetPoint" />
          </mxGeometry>
        </mxCell>
        <mxCell id="cvzFAE37gmTNGSHkUlID-8" value="" style="endArrow=none;html=1;rounded=0;" parent="1" edge="1">
          <mxGeometry width="50" height="50" relative="1" as="geometry">
            <mxPoint x="48" y="60" as="sourcePoint" />
            <mxPoint x="818" y="60" as="targetPoint" />
          </mxGeometry>
        </mxCell>
        <mxCell id="cvzFAE37gmTNGSHkUlID-9" value="" style="rounded=1;whiteSpace=wrap;html=1;fillColor=#808080;" parent="1" vertex="1">
          <mxGeometry x="47" y="68" width="110" height="60" as="geometry" />
        </mxCell>
        <mxCell id="cvzFAE37gmTNGSHkUlID-10" value="" style="endArrow=none;html=1;rounded=0;" parent="1" edge="1">
          <mxGeometry width="50" height="50" relative="1" as="geometry">
            <mxPoint x="48" y="136" as="sourcePoint" />
            <mxPoint x="818" y="136" as="targetPoint" />
          </mxGeometry>
        </mxCell>
        <mxCell id="cvzFAE37gmTNGSHkUlID-11" value="" style="endArrow=none;html=1;rounded=0;" parent="1" edge="1">
          <mxGeometry width="50" height="50" relative="1" as="geometry">
            <mxPoint x="48" y="140" as="sourcePoint" />
            <mxPoint x="818" y="140" as="targetPoint" />
          </mxGeometry>
        </mxCell>
        <mxCell id="cvzFAE37gmTNGSHkUlID-22" value="" style="rounded=1;whiteSpace=wrap;html=1;fillColor=#994C00;" parent="1" vertex="1">
          <mxGeometry x="178" y="68" width="110" height="60" as="geometry" />
        </mxCell>
        <mxCell id="cvzFAE37gmTNGSHkUlID-23" value="" style="rounded=1;whiteSpace=wrap;html=1;fillColor=#7EA6E0;" parent="1" vertex="1">
          <mxGeometry x="310" y="68" width="110" height="60" as="geometry" />
        </mxCell>
        <mxCell id="cvzFAE37gmTNGSHkUlID-24" value="" style="rounded=1;whiteSpace=wrap;html=1;fillColor=#B5739D;" parent="1" vertex="1">
          <mxGeometry x="441" y="68" width="110" height="60" as="geometry" />
        </mxCell>
        <mxCell id="cvzFAE37gmTNGSHkUlID-25" value="" style="rounded=1;whiteSpace=wrap;html=1;fillColor=#336600;" parent="1" vertex="1">
          <mxGeometry x="571" y="68" width="110" height="60" as="geometry" />
        </mxCell>
        <mxCell id="cvzFAE37gmTNGSHkUlID-26" value="" style="ellipse;shape=cloud;whiteSpace=wrap;html=1;" parent="1" vertex="1">
          <mxGeometry x="698" y="56" width="120" height="80" as="geometry" />
        </mxCell>
        <mxCell id="cvzFAE37gmTNGSHkUlID-29" value="&lt;h1 style=&quot;border-color: var(--border-color); line-height: 0%;&quot;&gt;&lt;font style=&quot;border-color: var(--border-color); font-size: 10px;&quot;&gt;Paso 0:&lt;/font&gt;&lt;/h1&gt;&lt;p style=&quot;border-color: var(--border-color); text-align: left;&quot;&gt;&lt;/p&gt;&lt;ul style=&quot;border-color: var(--border-color); text-align: left; font-size: 8px;&quot;&gt;&lt;/ul&gt;" style="text;html=1;strokeColor=none;fillColor=none;align=center;verticalAlign=middle;whiteSpace=wrap;rounded=0;" parent="1" vertex="1">
          <mxGeometry x="84" y="66" width="40" height="15" as="geometry" />
        </mxCell>
        <mxCell id="cvzFAE37gmTNGSHkUlID-32" value="&lt;div style=&quot;font-size: 6px;&quot;&gt;&lt;span style=&quot;background-color: initial;&quot;&gt;&lt;font style=&quot;font-size: 6px;&quot;&gt;&lt;b style=&quot;&quot;&gt;0.1) Controla tus gastos&lt;/b&gt;&lt;/font&gt;&lt;/span&gt;&lt;/div&gt;&lt;div style=&quot;font-size: 6px;&quot;&gt;&lt;span style=&quot;background-color: initial;&quot;&gt;&lt;font style=&quot;font-size: 6px;&quot;&gt;&lt;b&gt;0.2) Crea un presupuesto financiero&lt;/b&gt;&lt;/font&gt;&lt;/span&gt;&lt;/div&gt;&lt;div style=&quot;font-size: 6px;&quot;&gt;&lt;font style=&quot;font-size: 6px;&quot;&gt;&lt;b&gt;0.3) Ponte unas metas realistas&lt;/b&gt;&lt;/font&gt;&lt;/div&gt;&lt;div style=&quot;font-size: 6px;&quot;&gt;&lt;br&gt;&lt;/div&gt;" style="text;html=1;strokeColor=none;fillColor=none;align=left;verticalAlign=middle;whiteSpace=wrap;rounded=0;" parent="1" vertex="1">
          <mxGeometry x="48.5" y="82" width="126.5" height="40" as="geometry" />
        </mxCell>
        <mxCell id="cvzFAE37gmTNGSHkUlID-33" value="&lt;h1 style=&quot;border-color: var(--border-color); line-height: 0%;&quot;&gt;&lt;font style=&quot;border-color: var(--border-color); font-size: 10px;&quot;&gt;Paso 1:&lt;/font&gt;&lt;/h1&gt;&lt;p style=&quot;border-color: var(--border-color); text-align: left;&quot;&gt;&lt;/p&gt;&lt;ul style=&quot;border-color: var(--border-color); text-align: left; font-size: 8px;&quot;&gt;&lt;/ul&gt;" style="text;html=1;strokeColor=none;fillColor=none;align=center;verticalAlign=middle;whiteSpace=wrap;rounded=0;" parent="1" vertex="1">
          <mxGeometry x="213" y="66" width="40" height="15" as="geometry" />
        </mxCell>
        <mxCell id="cvzFAE37gmTNGSHkUlID-34" value="&lt;div style=&quot;font-size: 6px;&quot;&gt;&lt;span style=&quot;background-color: initial;&quot;&gt;&lt;font style=&quot;font-size: 6px;&quot;&gt;&lt;b style=&quot;&quot;&gt;1.0) Crea un fondo de Emergencia&lt;/b&gt;&lt;/font&gt;&lt;/span&gt;&lt;/div&gt;&lt;div style=&quot;font-size: 6px;&quot;&gt;&lt;br&gt;&lt;/div&gt;" style="text;html=1;strokeColor=none;fillColor=none;align=left;verticalAlign=middle;whiteSpace=wrap;rounded=0;" parent="1" vertex="1">
          <mxGeometry x="180.5" y="80" width="126.5" height="40" as="geometry" />
        </mxCell>
        <mxCell id="cvzFAE37gmTNGSHkUlID-35" value="&lt;h1 style=&quot;border-color: var(--border-color); line-height: 0%;&quot;&gt;&lt;font style=&quot;border-color: var(--border-color); font-size: 10px;&quot;&gt;Paso 2:&lt;/font&gt;&lt;/h1&gt;&lt;p style=&quot;border-color: var(--border-color); text-align: left;&quot;&gt;&lt;/p&gt;&lt;ul style=&quot;border-color: var(--border-color); text-align: left; font-size: 8px;&quot;&gt;&lt;/ul&gt;" style="text;html=1;strokeColor=none;fillColor=none;align=center;verticalAlign=middle;whiteSpace=wrap;rounded=0;" parent="1" vertex="1">
          <mxGeometry x="345" y="66" width="40" height="15" as="geometry" />
        </mxCell>
        <mxCell id="cvzFAE37gmTNGSHkUlID-36" value="&lt;div style=&quot;font-size: 6px;&quot;&gt;&lt;div style=&quot;border-color: var(--border-color);&quot;&gt;&lt;br&gt;&lt;/div&gt;&lt;/div&gt;&lt;div style=&quot;font-size: 6px;&quot;&gt;&lt;div style=&quot;border-color: var(--border-color); text-align: left;&quot;&gt;&lt;b style=&quot;background-color: initial; border-color: var(--border-color); text-align: center;&quot;&gt;2.1) Plan de Pensiones&lt;/b&gt;&lt;br&gt;&lt;/div&gt;&lt;/div&gt;&lt;div style=&quot;text-align: left; font-size: 6px;&quot;&gt;&lt;font style=&quot;font-size: 6px;&quot;&gt;&lt;div style=&quot;border-color: var(--border-color);&quot;&gt;&lt;b style=&quot;border-color: var(--border-color); text-align: center;&quot;&gt;2.2) Deudas con alto interés&amp;nbsp;&lt;/b&gt;&lt;/div&gt;&lt;/font&gt;&lt;/div&gt;&lt;div style=&quot;text-align: left; font-size: 6px;&quot;&gt;&lt;font style=&quot;font-size: 6px;&quot;&gt;&lt;b style=&quot;&quot;&gt;2.3) Reducción de deudas con interés medio&amp;nbsp;&amp;nbsp;&lt;/b&gt;&lt;/font&gt;&lt;/div&gt;&lt;div style=&quot;font-size: 6px;&quot;&gt;&lt;br&gt;&lt;/div&gt;" style="text;html=1;strokeColor=none;fillColor=none;align=center;verticalAlign=middle;whiteSpace=wrap;rounded=0;" parent="1" vertex="1">
          <mxGeometry x="316.5" y="82" width="98.5" height="40" as="geometry" />
        </mxCell>
        <mxCell id="cvzFAE37gmTNGSHkUlID-37" value="&lt;h1 style=&quot;border-color: var(--border-color); line-height: 0%;&quot;&gt;&lt;font style=&quot;border-color: var(--border-color); font-size: 10px;&quot;&gt;Paso 3:&lt;/font&gt;&lt;/h1&gt;&lt;p style=&quot;border-color: var(--border-color); text-align: left;&quot;&gt;&lt;/p&gt;&lt;ul style=&quot;border-color: var(--border-color); text-align: left; font-size: 8px;&quot;&gt;&lt;/ul&gt;" style="text;html=1;strokeColor=none;fillColor=none;align=center;verticalAlign=middle;whiteSpace=wrap;rounded=0;" parent="1" vertex="1">
          <mxGeometry x="475" y="66" width="40" height="15" as="geometry" />
        </mxCell>
        <mxCell id="cvzFAE37gmTNGSHkUlID-38" value="&lt;div style=&quot;font-size: 6px;&quot;&gt;&lt;span style=&quot;background-color: initial;&quot;&gt;&lt;font style=&quot;&quot;&gt;&lt;b&gt;3.0)Plan de propiedad de acciones para empleados (ESOP / ESPP)&lt;/b&gt;&lt;br&gt;&lt;/font&gt;&lt;/span&gt;&lt;/div&gt;&lt;div style=&quot;font-size: 6px;&quot;&gt;&lt;span style=&quot;background-color: initial;&quot;&gt;&lt;font style=&quot;font-size: 6px;&quot;&gt;&lt;b style=&quot;&quot;&gt;3.1) Inversiones Necesarias o Gastos Necesarios&amp;nbsp;&lt;/b&gt;&lt;/font&gt;&lt;/span&gt;&lt;/div&gt;&lt;div style=&quot;font-size: 6px;&quot;&gt;&lt;br&gt;&lt;/div&gt;" style="text;html=1;strokeColor=none;fillColor=none;align=left;verticalAlign=middle;whiteSpace=wrap;rounded=0;" parent="1" vertex="1">
          <mxGeometry x="444.5" y="82" width="106.5" height="40" as="geometry" />
        </mxCell>
        <mxCell id="cvzFAE37gmTNGSHkUlID-39" value="&lt;h1 style=&quot;border-color: var(--border-color); line-height: 0%;&quot;&gt;&lt;font style=&quot;border-color: var(--border-color); font-size: 10px;&quot;&gt;Paso 4:&lt;/font&gt;&lt;/h1&gt;&lt;p style=&quot;border-color: var(--border-color); text-align: left;&quot;&gt;&lt;/p&gt;&lt;ul style=&quot;border-color: var(--border-color); text-align: left; font-size: 8px;&quot;&gt;&lt;/ul&gt;" style="text;html=1;strokeColor=none;fillColor=none;align=center;verticalAlign=middle;whiteSpace=wrap;rounded=0;" parent="1" vertex="1">
          <mxGeometry x="606" y="66" width="40" height="15" as="geometry" />
        </mxCell>
        <mxCell id="cvzFAE37gmTNGSHkUlID-40" value="&lt;div style=&quot;font-size: 6px;&quot;&gt;&lt;span style=&quot;background-color: initial;&quot;&gt;&lt;font style=&quot;font-size: 6px;&quot;&gt;&lt;b style=&quot;&quot;&gt;4.0)Aportaciones Adicionales al plan de pensiones&lt;/b&gt;&lt;/font&gt;&lt;/span&gt;&lt;/div&gt;&lt;div style=&quot;font-size: 6px;&quot;&gt;&lt;span style=&quot;background-color: initial;&quot;&gt;&lt;font style=&quot;font-size: 6px;&quot;&gt;&lt;b style=&quot;&quot;&gt;4.1) Inversiones Adicionales&amp;nbsp;&lt;/b&gt;&lt;/font&gt;&lt;/span&gt;&lt;/div&gt;&lt;div style=&quot;font-size: 6px;&quot;&gt;&lt;br&gt;&lt;/div&gt;" style="text;html=1;strokeColor=none;fillColor=none;align=center;verticalAlign=middle;whiteSpace=wrap;rounded=0;" parent="1" vertex="1">
          <mxGeometry x="576.5" y="80" width="98.5" height="40" as="geometry" />
        </mxCell>
        <mxCell id="cvzFAE37gmTNGSHkUlID-41" value="&lt;div style=&quot;font-size: 6px;&quot;&gt;&lt;b&gt;Métodos Avanzados&lt;/b&gt;&lt;/div&gt;&lt;div style=&quot;font-size: 6px;&quot;&gt;&lt;b&gt;Metas a largo plazo&lt;/b&gt;&lt;/div&gt;" style="text;html=1;strokeColor=none;fillColor=none;align=center;verticalAlign=middle;whiteSpace=wrap;rounded=0;" parent="1" vertex="1">
          <mxGeometry x="711.5" y="75" width="98.5" height="40" as="geometry" />
        </mxCell>
        <mxCell id="cvzFAE37gmTNGSHkUlID-44" value="" style="rounded=0;whiteSpace=wrap;html=1;fillColor=none;strokeColor=#808080;" parent="1" vertex="1">
          <mxGeometry x="44" y="161" width="120" height="54" as="geometry" />
        </mxCell>
        <mxCell id="cvzFAE37gmTNGSHkUlID-45" value="" style="endArrow=none;html=1;rounded=0;strokeColor=#808080;" parent="1" edge="1">
          <mxGeometry width="50" height="50" relative="1" as="geometry">
            <mxPoint x="38" y="235" as="sourcePoint" />
            <mxPoint x="38" y="155" as="targetPoint" />
          </mxGeometry>
        </mxCell>
        <mxCell id="cvzFAE37gmTNGSHkUlID-46" value="" style="endArrow=none;html=1;rounded=0;strokeColor=#808080;" parent="1" edge="1">
          <mxGeometry width="50" height="50" relative="1" as="geometry">
            <mxPoint x="818" y="155" as="sourcePoint" />
            <mxPoint x="38" y="155" as="targetPoint" />
          </mxGeometry>
        </mxCell>
        <mxCell id="cvzFAE37gmTNGSHkUlID-50" value="Haz un seguimiento detallado de tus gastos bancarios / efectivo, crea una lista y categorízalos para tener una representación visual de a dónde se esta yendo tu dinero " style="text;strokeColor=none;fillColor=none;align=center;verticalAlign=bottom;whiteSpace=wrap;rounded=0;fontSize=5;" parent="1" vertex="1">
          <mxGeometry x="47" y="177.5" width="115" height="29" as="geometry" />
        </mxCell>
        <mxCell id="cvzFAE37gmTNGSHkUlID-51" value="&lt;font style=&quot;font-size: 7px;&quot;&gt;&lt;b&gt;Controla tus gastos&lt;/b&gt;&lt;/font&gt;" style="text;html=1;strokeColor=none;fillColor=none;align=center;verticalAlign=middle;whiteSpace=wrap;rounded=0;" parent="1" vertex="1">
          <mxGeometry x="44.5" y="161" width="119" height="10" as="geometry" />
        </mxCell>
        <mxCell id="cvzFAE37gmTNGSHkUlID-52" value="" style="rounded=0;whiteSpace=wrap;html=1;fillColor=none;strokeColor=#808080;" parent="1" vertex="1">
          <mxGeometry x="184" y="161" width="120" height="54" as="geometry" />
        </mxCell>
        <mxCell id="cvzFAE37gmTNGSHkUlID-53" value="" style="endArrow=classic;html=1;rounded=0;exitX=1;exitY=0.5;exitDx=0;exitDy=0;entryX=0;entryY=0.5;entryDx=0;entryDy=0;fontColor=#808080;strokeColor=#808080;endSize=3;" parent="1" source="cvzFAE37gmTNGSHkUlID-44" target="cvzFAE37gmTNGSHkUlID-52" edge="1">
          <mxGeometry width="50" height="50" relative="1" as="geometry">
            <mxPoint x="143" y="225" as="sourcePoint" />
            <mxPoint x="193" y="175" as="targetPoint" />
          </mxGeometry>
        </mxCell>
        <mxCell id="cvzFAE37gmTNGSHkUlID-54" value="&lt;font style=&quot;font-size: 7px;&quot;&gt;&lt;b&gt;Crea un presupuesto&lt;/b&gt;&lt;/font&gt;" style="text;html=1;strokeColor=none;fillColor=none;align=center;verticalAlign=middle;whiteSpace=wrap;rounded=0;" parent="1" vertex="1">
          <mxGeometry x="184" y="161" width="119" height="10" as="geometry" />
        </mxCell>
        <mxCell id="cvzFAE37gmTNGSHkUlID-55" value="Es FUNDAMENTAL para el bien de nuestras finanzas personales tener el conocimiento del capital que manejos, cuales son nuestros bienes y cuantos gastamos.&#xa;" style="text;strokeColor=none;fillColor=none;align=center;verticalAlign=bottom;whiteSpace=wrap;rounded=0;fontSize=5;" parent="1" vertex="1">
          <mxGeometry x="186" y="180" width="115" height="29" as="geometry" />
        </mxCell>
        <mxCell id="cvzFAE37gmTNGSHkUlID-56" value="Recomendación: Calcular nuestros gastos no esenciales y distribuir porcentualmente el capital que deseamos gastar en cada categoría " style="text;strokeColor=none;fillColor=none;align=left;verticalAlign=bottom;whiteSpace=wrap;rounded=0;fontSize=3;" parent="1" vertex="1">
          <mxGeometry x="186" y="200" width="115" height="11.5" as="geometry" />
        </mxCell>
        <mxCell id="cvzFAE37gmTNGSHkUlID-57" value="" style="endArrow=classic;html=1;rounded=0;exitX=1;exitY=0.5;exitDx=0;exitDy=0;entryX=0;entryY=0.5;entryDx=0;entryDy=0;fontColor=#808080;strokeColor=#808080;endSize=3;" parent="1" edge="1">
          <mxGeometry width="50" height="50" relative="1" as="geometry">
            <mxPoint x="304" y="187.9" as="sourcePoint" />
            <mxPoint x="324" y="187.9" as="targetPoint" />
          </mxGeometry>
        </mxCell>
        <mxCell id="cvzFAE37gmTNGSHkUlID-58" value="" style="rounded=0;whiteSpace=wrap;html=1;fillColor=none;strokeColor=#808080;" parent="1" vertex="1">
          <mxGeometry x="324" y="161" width="94" height="54" as="geometry" />
        </mxCell>
        <mxCell id="cvzFAE37gmTNGSHkUlID-59" value="&lt;font style=&quot;font-size: 7px;&quot;&gt;&lt;b&gt;Paga la Hipoteca / Alquiler&amp;nbsp;&lt;/b&gt;&lt;/font&gt;" style="text;html=1;strokeColor=none;fillColor=none;align=center;verticalAlign=middle;whiteSpace=wrap;rounded=0;" parent="1" vertex="1">
          <mxGeometry x="325" y="161" width="94" height="10" as="geometry" />
        </mxCell>
        <mxCell id="cvzFAE37gmTNGSHkUlID-60" value="Paga de forma integra todos los gastos asociados al hogar, incluyendo seguro en caso de ser necesario " style="text;strokeColor=none;fillColor=none;align=center;verticalAlign=bottom;whiteSpace=wrap;rounded=0;fontSize=5;" parent="1" vertex="1">
          <mxGeometry x="327" y="171.5" width="87" height="29" as="geometry" />
        </mxCell>
        <mxCell id="cvzFAE37gmTNGSHkUlID-62" value="" style="endArrow=classic;html=1;rounded=0;exitX=1;exitY=0.5;exitDx=0;exitDy=0;entryX=0;entryY=0.5;entryDx=0;entryDy=0;fontColor=#808080;strokeColor=#808080;endSize=3;" parent="1" edge="1">
          <mxGeometry width="50" height="50" relative="1" as="geometry">
            <mxPoint x="418" y="187.93" as="sourcePoint" />
            <mxPoint x="438" y="187.93" as="targetPoint" />
          </mxGeometry>
        </mxCell>
        <mxCell id="cvzFAE37gmTNGSHkUlID-63" value="" style="rounded=0;whiteSpace=wrap;html=1;fillColor=none;strokeColor=#808080;" parent="1" vertex="1">
          <mxGeometry x="438" y="161" width="94" height="54" as="geometry" />
        </mxCell>
        <mxCell id="cvzFAE37gmTNGSHkUlID-64" value="&lt;font style=&quot;font-size: 7px;&quot;&gt;&lt;b&gt;Paga los gastos esenciales&amp;nbsp;&lt;/b&gt;&lt;/font&gt;" style="text;html=1;strokeColor=none;fillColor=none;align=center;verticalAlign=middle;whiteSpace=wrap;rounded=0;" parent="1" vertex="1">
          <mxGeometry x="438" y="161" width="95" height="10" as="geometry" />
        </mxCell>
        <mxCell id="cvzFAE37gmTNGSHkUlID-65" value="Aquí incluimos:&#xa;Comida / Medicamentos / Luz / Agua / Gas" style="text;strokeColor=none;fillColor=none;align=center;verticalAlign=bottom;whiteSpace=wrap;rounded=0;fontSize=5;" parent="1" vertex="1">
          <mxGeometry x="450" y="172.5" width="71" height="29" as="geometry" />
        </mxCell>
        <mxCell id="cvzFAE37gmTNGSHkUlID-66" value="" style="endArrow=classic;html=1;rounded=0;exitX=1;exitY=0.5;exitDx=0;exitDy=0;entryX=0;entryY=0.5;entryDx=0;entryDy=0;fontColor=#808080;strokeColor=#808080;endSize=3;" parent="1" edge="1">
          <mxGeometry width="50" height="50" relative="1" as="geometry">
            <mxPoint x="532" y="187.93" as="sourcePoint" />
            <mxPoint x="552" y="187.93" as="targetPoint" />
          </mxGeometry>
        </mxCell>
        <mxCell id="cvzFAE37gmTNGSHkUlID-67" value="" style="rounded=0;whiteSpace=wrap;html=1;fillColor=none;strokeColor=#808080;" parent="1" vertex="1">
          <mxGeometry x="552" y="161" width="106" height="54" as="geometry" />
        </mxCell>
        <mxCell id="cvzFAE37gmTNGSHkUlID-68" value="Paga los gastos relacionados con tu actividad económica " style="text;strokeColor=none;fillColor=none;align=center;verticalAlign=middle;whiteSpace=wrap;rounded=0;fontSize=7;fontStyle=1" parent="1" vertex="1">
          <mxGeometry x="554" y="158" width="105" height="25" as="geometry" />
        </mxCell>
        <mxCell id="cvzFAE37gmTNGSHkUlID-69" value="Transporte y vinculados, internet, línea de teléfono, etc" style="text;strokeColor=none;fillColor=none;align=center;verticalAlign=bottom;whiteSpace=wrap;rounded=0;fontSize=5;" parent="1" vertex="1">
          <mxGeometry x="556" y="179.5" width="98" height="17.5" as="geometry" />
        </mxCell>
        <mxCell id="cvzFAE37gmTNGSHkUlID-70" value="Cualquier gasto necesario para continuar generando ingresos " style="text;strokeColor=none;fillColor=none;align=center;verticalAlign=bottom;whiteSpace=wrap;rounded=0;fontSize=5;fontStyle=3" parent="1" vertex="1">
          <mxGeometry x="556" y="194.5" width="98" height="17.5" as="geometry" />
        </mxCell>
        <mxCell id="cvzFAE37gmTNGSHkUlID-72" value="" style="rounded=0;whiteSpace=wrap;html=1;fillColor=none;strokeColor=#808080;dashed=1;" parent="1" vertex="1">
          <mxGeometry x="678" y="161" width="95" height="54" as="geometry" />
        </mxCell>
        <mxCell id="cvzFAE37gmTNGSHkUlID-73" value="" style="endArrow=classic;html=1;rounded=0;exitX=1;exitY=0.5;exitDx=0;exitDy=0;entryX=0;entryY=0.5;entryDx=0;entryDy=0;fontColor=#808080;strokeColor=#808080;endSize=3;" parent="1" edge="1">
          <mxGeometry width="50" height="50" relative="1" as="geometry">
            <mxPoint x="658" y="187.93" as="sourcePoint" />
            <mxPoint x="678" y="187.93" as="targetPoint" />
          </mxGeometry>
        </mxCell>
        <mxCell id="cvzFAE37gmTNGSHkUlID-75" value="&lt;font style=&quot;font-size: 7px;&quot;&gt;&lt;b&gt;Paga seguros médicos&lt;/b&gt;&lt;/font&gt;" style="text;html=1;strokeColor=none;fillColor=none;align=center;verticalAlign=middle;whiteSpace=wrap;rounded=0;" parent="1" vertex="1">
          <mxGeometry x="679" y="161" width="95" height="10" as="geometry" />
        </mxCell>
        <mxCell id="cvzFAE37gmTNGSHkUlID-76" value="Pagaríamos nuestro seguro médico y sus gastos asociados" style="text;strokeColor=none;fillColor=none;align=center;verticalAlign=bottom;whiteSpace=wrap;rounded=0;fontSize=5;fontStyle=2" parent="1" vertex="1">
          <mxGeometry x="681.5" y="190" width="88" height="16.5" as="geometry" />
        </mxCell>
        <mxCell id="cvzFAE37gmTNGSHkUlID-77" value="&lt;span style=&quot;color: rgb(0, 0, 0); font-family: Helvetica; font-size: 5px; font-style: normal; font-variant-ligatures: normal; font-variant-caps: normal; letter-spacing: normal; orphans: 2; text-align: center; text-indent: 0px; text-transform: none; widows: 2; word-spacing: 0px; -webkit-text-stroke-width: 0px; background-color: rgb(251, 251, 251); text-decoration-thickness: initial; text-decoration-style: initial; text-decoration-color: initial; float: none; display: inline !important;&quot;&gt;&lt;b&gt;***En caso de ser esencial***&lt;/b&gt;&lt;/span&gt;" style="text;whiteSpace=wrap;html=1;" parent="1" vertex="1">
          <mxGeometry x="689.5" y="169.5" width="80" height="25" as="geometry" />
        </mxCell>
        <mxCell id="cvzFAE37gmTNGSHkUlID-78" value="" style="endArrow=classic;html=1;rounded=0;exitX=1;exitY=0.5;exitDx=0;exitDy=0;fontColor=#808080;strokeColor=#994C00;endSize=3;entryX=1;entryY=0.5;entryDx=0;entryDy=0;" parent="1" source="cvzFAE37gmTNGSHkUlID-72" target="cvzFAE37gmTNGSHkUlID-79" edge="1">
          <mxGeometry width="50" height="50" relative="1" as="geometry">
            <mxPoint x="774" y="188" as="sourcePoint" />
            <mxPoint x="763" y="245" as="targetPoint" />
            <Array as="points">
              <mxPoint x="808" y="188" />
              <mxPoint x="808" y="210" />
              <mxPoint x="808" y="235" />
              <mxPoint x="808" y="278" />
              <mxPoint x="803" y="278" />
            </Array>
          </mxGeometry>
        </mxCell>
        <mxCell id="cvzFAE37gmTNGSHkUlID-79" value="" style="rounded=0;whiteSpace=wrap;html=1;fillColor=none;strokeColor=#994C00;" parent="1" vertex="1">
          <mxGeometry x="698" y="246" width="100" height="64" as="geometry" />
        </mxCell>
        <mxCell id="cvzFAE37gmTNGSHkUlID-80" value="" style="endArrow=classic;html=1;rounded=0;fontColor=#808080;strokeColor=#994C00;endSize=3;exitX=0;exitY=0.5;exitDx=0;exitDy=0;" parent="1" source="cvzFAE37gmTNGSHkUlID-79" edge="1">
          <mxGeometry width="50" height="50" relative="1" as="geometry">
            <mxPoint x="677.335" y="259.76000000000005" as="sourcePoint" />
            <mxPoint x="658" y="263" as="targetPoint" />
            <Array as="points">
              <mxPoint x="693" y="278" />
              <mxPoint x="688" y="278" />
              <mxPoint x="688" y="273" />
              <mxPoint x="688" y="263" />
              <mxPoint x="678" y="263" />
            </Array>
          </mxGeometry>
        </mxCell>
        <mxCell id="cvzFAE37gmTNGSHkUlID-81" value="Construye un fondo de emergencia&#xa;" style="text;strokeColor=none;fillColor=none;align=center;verticalAlign=middle;whiteSpace=wrap;rounded=0;fontStyle=1;fontSize=7;" parent="1" vertex="1">
          <mxGeometry x="699" y="255" width="95" height="10" as="geometry" />
        </mxCell>
        <mxCell id="cvzFAE37gmTNGSHkUlID-82" value="En función del riesgo sobre nuestro ingreso principal:         Mayor Riesgo Mayor Fondo de Emergencia" style="text;strokeColor=none;fillColor=none;align=center;verticalAlign=bottom;whiteSpace=wrap;rounded=0;fontSize=3;fontStyle=2" parent="1" vertex="1">
          <mxGeometry x="701.5" y="302" width="88" height="7.5" as="geometry" />
        </mxCell>
        <mxCell id="cvzFAE37gmTNGSHkUlID-84" value="3500€  o 3 meses de salario neto   (Lo que sea mayor)" style="text;strokeColor=none;fillColor=none;align=center;verticalAlign=bottom;whiteSpace=wrap;rounded=0;fontSize=5;fontStyle=0" parent="1" vertex="1">
          <mxGeometry x="701" y="265.75" width="88" height="16.5" as="geometry" />
        </mxCell>
        <mxCell id="cvzFAE37gmTNGSHkUlID-85" value="Almacenar este capital en una cuenta remunerada que podamos recuperar en menos de 72 horas." style="text;strokeColor=none;fillColor=none;align=center;verticalAlign=bottom;whiteSpace=wrap;rounded=0;fontSize=4;fontStyle=1" parent="1" vertex="1">
          <mxGeometry x="702.5" y="283.25" width="88" height="16.5" as="geometry" />
        </mxCell>
        <mxCell id="cvzFAE37gmTNGSHkUlID-91" value="" style="edgeStyle=orthogonalEdgeStyle;rounded=0;orthogonalLoop=1;jettySize=auto;html=1;endSize=3;strokeColor=#808080;" parent="1" source="cvzFAE37gmTNGSHkUlID-86" target="cvzFAE37gmTNGSHkUlID-90" edge="1">
          <mxGeometry relative="1" as="geometry" />
        </mxCell>
        <mxCell id="cvzFAE37gmTNGSHkUlID-86" value="" style="rounded=0;whiteSpace=wrap;html=1;fillColor=none;strokeColor=#808080;" parent="1" vertex="1">
          <mxGeometry x="552" y="235" width="106" height="55" as="geometry" />
        </mxCell>
        <mxCell id="cvzFAE37gmTNGSHkUlID-87" value="Controla tus gastos no esenciales" style="text;strokeColor=none;fillColor=none;align=center;verticalAlign=middle;whiteSpace=wrap;rounded=0;fontSize=6;fontStyle=1" parent="1" vertex="1">
          <mxGeometry x="553" y="235" width="103.75" height="16" as="geometry" />
        </mxCell>
        <mxCell id="cvzFAE37gmTNGSHkUlID-89" value="Haz un seguimiento detallado de tus gastos no esenciales, replantea si es necesario seguir pagándolos y entiende su efecto negativo hacia FI / RE " style="text;strokeColor=none;fillColor=none;align=center;verticalAlign=bottom;whiteSpace=wrap;rounded=0;fontSize=5;" parent="1" vertex="1">
          <mxGeometry x="555" y="247" width="100" height="34" as="geometry" />
        </mxCell>
        <mxCell id="cvzFAE37gmTNGSHkUlID-90" value="" style="rounded=0;whiteSpace=wrap;html=1;fillColor=none;strokeColor=#808080;" parent="1" vertex="1">
          <mxGeometry x="419" y="235" width="106" height="55" as="geometry" />
        </mxCell>
        <mxCell id="cvzFAE37gmTNGSHkUlID-92" value="Paga íntegramente tus gastos no esenciales" style="text;strokeColor=none;fillColor=none;align=center;verticalAlign=middle;whiteSpace=wrap;rounded=0;fontSize=6;fontStyle=1" parent="1" vertex="1">
          <mxGeometry x="420" y="240" width="103.75" height="16" as="geometry" />
        </mxCell>
        <mxCell id="cvzFAE37gmTNGSHkUlID-93" value="Incluimos gastos como:  subscripciones a servicios digitales, tarifas de internet no esenciales, etc" style="text;strokeColor=none;fillColor=none;align=center;verticalAlign=bottom;whiteSpace=wrap;rounded=0;fontSize=5;" parent="1" vertex="1">
          <mxGeometry x="422" y="259" width="100" height="21" as="geometry" />
        </mxCell>
        <mxCell id="cvzFAE37gmTNGSHkUlID-94" value="" style="endArrow=none;html=1;rounded=0;strokeColor=#808080;" parent="1" edge="1">
          <mxGeometry width="50" height="50" relative="1" as="geometry">
            <mxPoint x="398" y="235" as="sourcePoint" />
            <mxPoint x="38" y="235" as="targetPoint" />
          </mxGeometry>
        </mxCell>
        <mxCell id="cvzFAE37gmTNGSHkUlID-95" value="" style="endArrow=none;html=1;rounded=0;strokeColor=#808080;" parent="1" edge="1">
          <mxGeometry width="50" height="50" relative="1" as="geometry">
            <mxPoint x="398" y="300" as="sourcePoint" />
            <mxPoint x="398" y="235" as="targetPoint" />
          </mxGeometry>
        </mxCell>
        <mxCell id="cvzFAE37gmTNGSHkUlID-96" value="" style="endArrow=none;html=1;rounded=0;strokeColor=#808080;" parent="1" edge="1">
          <mxGeometry width="50" height="50" relative="1" as="geometry">
            <mxPoint x="668" y="300" as="sourcePoint" />
            <mxPoint x="398" y="300" as="targetPoint" />
          </mxGeometry>
        </mxCell>
        <mxCell id="cvzFAE37gmTNGSHkUlID-97" value="" style="endArrow=none;html=1;rounded=0;strokeColor=#808080;" parent="1" edge="1">
          <mxGeometry width="50" height="50" relative="1" as="geometry">
            <mxPoint x="668" y="300" as="sourcePoint" />
            <mxPoint x="668" y="225" as="targetPoint" />
          </mxGeometry>
        </mxCell>
        <mxCell id="cvzFAE37gmTNGSHkUlID-98" value="" style="endArrow=none;html=1;rounded=0;strokeColor=#808080;" parent="1" edge="1">
          <mxGeometry width="50" height="50" relative="1" as="geometry">
            <mxPoint x="818" y="225" as="sourcePoint" />
            <mxPoint x="668" y="225" as="targetPoint" />
          </mxGeometry>
        </mxCell>
        <mxCell id="cvzFAE37gmTNGSHkUlID-99" value="" style="endArrow=none;html=1;rounded=0;strokeColor=#808080;" parent="1" edge="1">
          <mxGeometry width="50" height="50" relative="1" as="geometry">
            <mxPoint x="818" y="225" as="sourcePoint" />
            <mxPoint x="818" y="155" as="targetPoint" />
          </mxGeometry>
        </mxCell>
        <mxCell id="cvzFAE37gmTNGSHkUlID-100" value="&lt;font color=&quot;#808080&quot; style=&quot;font-size: 5px;&quot;&gt;Sección 0: Control de gastos, Presupuesto y Esenciales&lt;/font&gt;" style="text;html=1;strokeColor=none;fillColor=none;align=center;verticalAlign=middle;whiteSpace=wrap;rounded=0;rotation=270;" parent="1" vertex="1">
          <mxGeometry x="-45" y="209" width="132" height="16" as="geometry" />
        </mxCell>
        <mxCell id="cvzFAE37gmTNGSHkUlID-101" value="" style="endArrow=none;html=1;rounded=0;strokeColor=#994C00;" parent="1" edge="1">
          <mxGeometry width="50" height="50" relative="1" as="geometry">
            <mxPoint x="678" y="315" as="sourcePoint" />
            <mxPoint x="678" y="235" as="targetPoint" />
          </mxGeometry>
        </mxCell>
        <mxCell id="cvzFAE37gmTNGSHkUlID-102" value="" style="endArrow=none;html=1;rounded=0;strokeColor=#994C00;" parent="1" edge="1">
          <mxGeometry width="50" height="50" relative="1" as="geometry">
            <mxPoint x="818" y="235" as="sourcePoint" />
            <mxPoint x="678" y="235" as="targetPoint" />
          </mxGeometry>
        </mxCell>
        <mxCell id="cvzFAE37gmTNGSHkUlID-103" value="" style="endArrow=none;html=1;rounded=0;strokeColor=#994C00;" parent="1" edge="1">
          <mxGeometry width="50" height="50" relative="1" as="geometry">
            <mxPoint x="818" y="235" as="sourcePoint" />
            <mxPoint x="818" y="340" as="targetPoint" />
          </mxGeometry>
        </mxCell>
        <mxCell id="cvzFAE37gmTNGSHkUlID-105" value="" style="endArrow=none;html=1;rounded=0;strokeColor=#7EA6E0;" parent="1" edge="1">
          <mxGeometry width="50" height="50" relative="1" as="geometry">
            <mxPoint x="38" y="315" as="sourcePoint" />
            <mxPoint x="678" y="315" as="targetPoint" />
          </mxGeometry>
        </mxCell>
        <mxCell id="cvzFAE37gmTNGSHkUlID-108" value="" style="shape=ext;double=1;rounded=0;whiteSpace=wrap;html=1;strokeColor=#808080;fillColor=#808080;" parent="1" vertex="1">
          <mxGeometry x="40" y="241" width="258" height="70" as="geometry" />
        </mxCell>
        <mxCell id="cvzFAE37gmTNGSHkUlID-109" value="&lt;span style=&quot;font-size: 7px;&quot;&gt;&lt;b&gt;Recursos Adicionales para la Sección 0:&lt;/b&gt;&lt;/span&gt;" style="text;html=1;strokeColor=none;fillColor=none;align=center;verticalAlign=middle;whiteSpace=wrap;rounded=0;" parent="1" vertex="1">
          <mxGeometry x="39" y="241" width="143" height="10" as="geometry" />
        </mxCell>
        <mxCell id="cvzFAE37gmTNGSHkUlID-110" value="" style="endArrow=none;html=1;rounded=0;strokeColor=#7EA6E0;entryX=0.023;entryY=1;entryDx=0;entryDy=0;entryPerimeter=0;" parent="1" target="cvzFAE37gmTNGSHkUlID-114" edge="1">
          <mxGeometry width="50" height="50" relative="1" as="geometry">
            <mxPoint x="38" y="315" as="sourcePoint" />
            <mxPoint x="38" y="475" as="targetPoint" />
          </mxGeometry>
        </mxCell>
        <mxCell id="cvzFAE37gmTNGSHkUlID-111" value="" style="endArrow=classic;html=1;rounded=0;fontColor=#808080;strokeColor=#994C00;endSize=3;exitX=0.5;exitY=1;exitDx=0;exitDy=0;entryX=1;entryY=0.5;entryDx=0;entryDy=0;" parent="1" source="cvzFAE37gmTNGSHkUlID-79" target="cvzFAE37gmTNGSHkUlID-113" edge="1">
          <mxGeometry width="50" height="50" relative="1" as="geometry">
            <mxPoint x="763" y="367" as="sourcePoint" />
            <mxPoint x="723" y="345" as="targetPoint" />
            <Array as="points">
              <mxPoint x="748" y="330" />
              <mxPoint x="748" y="355" />
            </Array>
          </mxGeometry>
        </mxCell>
        <mxCell id="cvzFAE37gmTNGSHkUlID-113" value="" style="rounded=0;whiteSpace=wrap;html=1;fillColor=none;strokeColor=#7EA6E0;" parent="1" vertex="1">
          <mxGeometry x="587" y="325" width="111" height="90" as="geometry" />
        </mxCell>
        <mxCell id="cvzFAE37gmTNGSHkUlID-114" value="Sección 1: Fondo de Emergencia, Reducción de Deudas y Plan de Inversion&#xa;" style="text;strokeColor=none;fillColor=none;align=center;verticalAlign=middle;whiteSpace=wrap;rounded=0;rotation=270;fontSize=5;fontColor=#7EA6E0;" parent="1" vertex="1">
          <mxGeometry x="-36" y="384" width="132" height="16" as="geometry" />
        </mxCell>
        <mxCell id="cvzFAE37gmTNGSHkUlID-115" value="Construye un plan de inversión (IPS)" style="text;strokeColor=none;fillColor=none;align=center;verticalAlign=middle;whiteSpace=wrap;rounded=0;fontSize=6;fontStyle=1" parent="1" vertex="1">
          <mxGeometry x="588.25" y="325" width="109.75" height="16" as="geometry" />
        </mxCell>
        <mxCell id="cvzFAE37gmTNGSHkUlID-116" value="Haz la debida diligencia, analiza tu situación económica, infórmate de que opciones de inversión se adecuan mejor a tu situación y estudia tu entorno económico" style="text;strokeColor=none;fillColor=none;align=center;verticalAlign=bottom;whiteSpace=wrap;rounded=0;fontSize=5;" parent="1" vertex="1">
          <mxGeometry x="592" y="339" width="100" height="29" as="geometry" />
        </mxCell>
        <mxCell id="cvzFAE37gmTNGSHkUlID-118" value="Redacta un plan de inversión  donde se reflejen tus metas, la descripción de tu portfolio de inversión, los rendimientos esperados, las contribuciones necesarias, el marco temporal, perfil de riesgo y estrategias fiscales" style="text;strokeColor=none;fillColor=none;align=center;verticalAlign=bottom;whiteSpace=wrap;rounded=0;fontSize=5;" parent="1" vertex="1">
          <mxGeometry x="592" y="364" width="100" height="44" as="geometry" />
        </mxCell>
        <mxCell id="cvzFAE37gmTNGSHkUlID-119" style="edgeStyle=orthogonalEdgeStyle;rounded=0;orthogonalLoop=1;jettySize=auto;html=1;exitX=0.5;exitY=1;exitDx=0;exitDy=0;" parent="1" source="cvzFAE37gmTNGSHkUlID-113" target="cvzFAE37gmTNGSHkUlID-113" edge="1">
          <mxGeometry relative="1" as="geometry" />
        </mxCell>
        <mxCell id="cvzFAE37gmTNGSHkUlID-121" value="" style="rounded=0;whiteSpace=wrap;html=1;fillColor=none;strokeColor=#7EA6E0;" parent="1" vertex="1">
          <mxGeometry x="452" y="330" width="111" height="30" as="geometry" />
        </mxCell>
        <mxCell id="cvzFAE37gmTNGSHkUlID-122" value="" style="endArrow=classic;html=1;rounded=0;fontColor=#808080;strokeColor=#7EA6E0;endSize=3;exitX=0;exitY=0.5;exitDx=0;exitDy=0;entryX=1;entryY=0.5;entryDx=0;entryDy=0;" parent="1" source="cvzFAE37gmTNGSHkUlID-113" target="cvzFAE37gmTNGSHkUlID-121" edge="1">
          <mxGeometry width="50" height="50" relative="1" as="geometry">
            <mxPoint x="623" y="318" as="sourcePoint" />
            <mxPoint x="583" y="303" as="targetPoint" />
          </mxGeometry>
        </mxCell>
        <mxCell id="cvzFAE37gmTNGSHkUlID-124" value="¿Dispones de acceso a un plan de pensiones de empleo?&#xa;(PPE / PPEPC)" style="text;strokeColor=none;fillColor=none;align=center;verticalAlign=middle;whiteSpace=wrap;rounded=0;fontSize=6;fontStyle=1" parent="1" vertex="1">
          <mxGeometry x="453.5" y="333" width="108" height="21" as="geometry" />
        </mxCell>
        <mxCell id="cvzFAE37gmTNGSHkUlID-125" value="" style="endArrow=classic;html=1;rounded=0;fontColor=#808080;strokeColor=#7EA6E0;endSize=3;entryX=1;entryY=0.5;entryDx=0;entryDy=0;exitX=0;exitY=0.5;exitDx=0;exitDy=0;" parent="1" source="cvzFAE37gmTNGSHkUlID-121" target="cvzFAE37gmTNGSHkUlID-134" edge="1">
          <mxGeometry width="50" height="50" relative="1" as="geometry">
            <mxPoint x="452" y="320" as="sourcePoint" />
            <mxPoint x="393" y="345" as="targetPoint" />
          </mxGeometry>
        </mxCell>
        <mxCell id="cvzFAE37gmTNGSHkUlID-126" value="SI" style="text;html=1;strokeColor=none;fillColor=none;align=center;verticalAlign=middle;whiteSpace=wrap;rounded=0;" parent="1" vertex="1">
          <mxGeometry x="402" y="325" width="60" height="19" as="geometry" />
        </mxCell>
        <mxCell id="cvzFAE37gmTNGSHkUlID-129" value="NO" style="text;html=1;strokeColor=none;fillColor=none;align=center;verticalAlign=middle;whiteSpace=wrap;rounded=0;" parent="1" vertex="1">
          <mxGeometry x="461" y="357" width="60" height="30" as="geometry" />
        </mxCell>
        <mxCell id="cvzFAE37gmTNGSHkUlID-130" value="" style="endArrow=classic;html=1;rounded=0;fontColor=#808080;strokeColor=#7EA6E0;endSize=3;exitX=0.5;exitY=1;exitDx=0;exitDy=0;" parent="1" source="cvzFAE37gmTNGSHkUlID-121" edge="1">
          <mxGeometry width="50" height="50" relative="1" as="geometry">
            <mxPoint x="502" y="440" as="sourcePoint" />
            <mxPoint x="173" y="345" as="targetPoint" />
            <Array as="points">
              <mxPoint x="508" y="380" />
              <mxPoint x="338" y="380" />
              <mxPoint x="173" y="380" />
            </Array>
          </mxGeometry>
        </mxCell>
        <mxCell id="cvzFAE37gmTNGSHkUlID-132" value="" style="rounded=0;whiteSpace=wrap;html=1;fillColor=none;strokeColor=#7EA6E0;" parent="1" vertex="1">
          <mxGeometry x="187" y="332.5" width="111" height="25" as="geometry" />
        </mxCell>
        <mxCell id="cvzFAE37gmTNGSHkUlID-133" value="Contribuye el mínimo necesario para obtener la mayor contribución por parte del promotor" style="text;strokeColor=none;fillColor=none;align=center;verticalAlign=bottom;whiteSpace=wrap;rounded=0;fontSize=5;fontStyle=1" parent="1" vertex="1">
          <mxGeometry x="193.5" y="332" width="100" height="25" as="geometry" />
        </mxCell>
        <mxCell id="cvzFAE37gmTNGSHkUlID-134" value="" style="rounded=0;whiteSpace=wrap;html=1;fillColor=none;strokeColor=#7EA6E0;" parent="1" vertex="1">
          <mxGeometry x="344" y="330" width="65.5" height="30" as="geometry" />
        </mxCell>
        <mxCell id="cvzFAE37gmTNGSHkUlID-135" value="Estudia y comprende las condiciones, garantías y beneficios que ofrece" style="text;strokeColor=none;fillColor=none;align=center;verticalAlign=bottom;whiteSpace=wrap;rounded=0;fontSize=5;" parent="1" vertex="1">
          <mxGeometry x="345" y="331.5" width="62.75" height="25" as="geometry" />
        </mxCell>
        <mxCell id="cvzFAE37gmTNGSHkUlID-137" value="" style="endArrow=classic;html=1;rounded=0;fontColor=#808080;strokeColor=#7EA6E0;endSize=3;entryX=1;entryY=0.5;entryDx=0;entryDy=0;exitX=0;exitY=0.5;exitDx=0;exitDy=0;" parent="1" source="cvzFAE37gmTNGSHkUlID-134" target="cvzFAE37gmTNGSHkUlID-132" edge="1">
          <mxGeometry width="50" height="50" relative="1" as="geometry">
            <mxPoint x="343" y="343" as="sourcePoint" />
            <mxPoint x="298" y="370" as="targetPoint" />
          </mxGeometry>
        </mxCell>
        <mxCell id="cvzFAE37gmTNGSHkUlID-139" value="" style="rounded=0;whiteSpace=wrap;html=1;fillColor=none;strokeColor=#7EA6E0;" parent="1" vertex="1">
          <mxGeometry x="53" y="332.5" width="105" height="25" as="geometry" />
        </mxCell>
        <mxCell id="cvzFAE37gmTNGSHkUlID-140" value="" style="endArrow=classic;html=1;rounded=0;fontColor=#808080;strokeColor=#7EA6E0;endSize=3;exitX=0;exitY=0.5;exitDx=0;exitDy=0;" parent="1" edge="1">
          <mxGeometry width="50" height="50" relative="1" as="geometry">
            <mxPoint x="188" y="345" as="sourcePoint" />
            <mxPoint x="158" y="345" as="targetPoint" />
          </mxGeometry>
        </mxCell>
        <mxCell id="cvzFAE37gmTNGSHkUlID-143" value="¿Tienes préstamos / créditos a intereses altos? &gt; 5% " style="text;strokeColor=none;fillColor=none;align=center;verticalAlign=bottom;whiteSpace=wrap;rounded=0;fontSize=5;fontStyle=1" parent="1" vertex="1">
          <mxGeometry x="57.5" y="331" width="95" height="22" as="geometry" />
        </mxCell>
        <mxCell id="cvzFAE37gmTNGSHkUlID-144" value="" style="endArrow=classic;html=1;rounded=0;fontColor=#808080;strokeColor=#7EA6E0;endSize=3;exitX=0.303;exitY=0.981;exitDx=0;exitDy=0;exitPerimeter=0;entryX=0.5;entryY=0;entryDx=0;entryDy=0;" parent="1" source="cvzFAE37gmTNGSHkUlID-139" target="cvzFAE37gmTNGSHkUlID-146" edge="1">
          <mxGeometry width="50" height="50" relative="1" as="geometry">
            <mxPoint x="98" y="420" as="sourcePoint" />
            <mxPoint x="78" y="420" as="targetPoint" />
          </mxGeometry>
        </mxCell>
        <mxCell id="cvzFAE37gmTNGSHkUlID-146" value="" style="rounded=0;whiteSpace=wrap;html=1;fillColor=none;strokeColor=#7EA6E0;" parent="1" vertex="1">
          <mxGeometry x="47" y="389" width="75" height="32" as="geometry" />
        </mxCell>
        <mxCell id="cvzFAE37gmTNGSHkUlID-148" value="SI" style="text;html=1;strokeColor=none;fillColor=none;align=center;verticalAlign=middle;whiteSpace=wrap;rounded=0;" parent="1" vertex="1">
          <mxGeometry x="44" y="360" width="60" height="19" as="geometry" />
        </mxCell>
        <mxCell id="cvzFAE37gmTNGSHkUlID-149" value="&lt;font style=&quot;font-size: 10px;&quot;&gt;NO&lt;/font&gt;" style="text;html=1;strokeColor=none;fillColor=none;align=center;verticalAlign=middle;whiteSpace=wrap;rounded=0;" parent="1" vertex="1">
          <mxGeometry x="284" y="384" width="60" height="30" as="geometry" />
        </mxCell>
        <mxCell id="cvzFAE37gmTNGSHkUlID-150" value="Paga toda la deuda a alto interés en el menor tiempo posible, aumentando el valor de las cuotas," style="text;strokeColor=none;fillColor=none;align=center;verticalAlign=bottom;whiteSpace=wrap;rounded=0;fontSize=5;" parent="1" vertex="1">
          <mxGeometry x="51" y="391.5" width="66" height="27" as="geometry" />
        </mxCell>
        <mxCell id="cvzFAE37gmTNGSHkUlID-145" value="" style="endArrow=classic;html=1;rounded=0;fontColor=#808080;strokeColor=#7EA6E0;endSize=3;exitX=0.928;exitY=0.993;exitDx=0;exitDy=0;exitPerimeter=0;" parent="1" source="cvzFAE37gmTNGSHkUlID-139" edge="1">
          <mxGeometry width="50" height="50" relative="1" as="geometry">
            <mxPoint x="133" y="404.92" as="sourcePoint" />
            <mxPoint x="150" y="405" as="targetPoint" />
          </mxGeometry>
        </mxCell>
        <mxCell id="cvzFAE37gmTNGSHkUlID-153" value="" style="rounded=0;whiteSpace=wrap;html=1;fillColor=none;strokeColor=#994C00;" parent="1" vertex="1">
          <mxGeometry x="193.5" y="400" width="105" height="10" as="geometry" />
        </mxCell>
        <mxCell id="cvzFAE37gmTNGSHkUlID-154" value="¿Tu situación laboral es estable?" style="text;strokeColor=none;fillColor=none;align=center;verticalAlign=bottom;whiteSpace=wrap;rounded=0;fontSize=5;fontStyle=1" parent="1" vertex="1">
          <mxGeometry x="197" y="402" width="95" height="8" as="geometry" />
        </mxCell>
        <mxCell id="cvzFAE37gmTNGSHkUlID-155" value="" style="endArrow=classic;html=1;rounded=0;fontColor=#808080;strokeColor=#994C00;endSize=3;exitX=1;exitY=0.5;exitDx=0;exitDy=0;" parent="1" edge="1">
          <mxGeometry width="50" height="50" relative="1" as="geometry">
            <mxPoint x="298" y="404.88" as="sourcePoint" />
            <mxPoint x="339" y="404.88" as="targetPoint" />
          </mxGeometry>
        </mxCell>
        <mxCell id="cvzFAE37gmTNGSHkUlID-158" value="" style="endArrow=classic;html=1;rounded=0;fontColor=#808080;strokeColor=#994C00;endSize=3;exitX=0.522;exitY=1.034;exitDx=0;exitDy=0;exitPerimeter=0;" parent="1" edge="1">
          <mxGeometry width="50" height="50" relative="1" as="geometry">
            <mxPoint x="258.30999999999995" y="410.34000000000015" as="sourcePoint" />
            <mxPoint x="293" y="435" as="targetPoint" />
            <Array as="points">
              <mxPoint x="258.5" y="435" />
            </Array>
          </mxGeometry>
        </mxCell>
        <mxCell id="cvzFAE37gmTNGSHkUlID-161" value="" style="rounded=0;whiteSpace=wrap;html=1;fillColor=none;strokeColor=#994C00;" parent="1" vertex="1">
          <mxGeometry x="338.5" y="390" width="98" height="30" as="geometry" />
        </mxCell>
        <mxCell id="cvzFAE37gmTNGSHkUlID-162" value="Aumenta tu Fondo de Emergencia a 8 - 12 meses de salario" style="text;strokeColor=none;fillColor=none;align=center;verticalAlign=bottom;whiteSpace=wrap;rounded=0;fontSize=5;fontStyle=1" parent="1" vertex="1">
          <mxGeometry x="338.75" y="392.5" width="99.25" height="13" as="geometry" />
        </mxCell>
        <mxCell id="cvzFAE37gmTNGSHkUlID-163" value="Si es posible almacena este capital en un cuenta remunerada con mejores rendimientos que tu fondo de emergencia previo aunque tiempo de retirada mayor" style="text;strokeColor=none;fillColor=none;align=center;verticalAlign=bottom;whiteSpace=wrap;rounded=0;fontSize=3;fontStyle=2" parent="1" vertex="1">
          <mxGeometry x="342" y="410.5" width="88" height="7.5" as="geometry" />
        </mxCell>
        <mxCell id="cvzFAE37gmTNGSHkUlID-164" value="" style="rounded=0;whiteSpace=wrap;html=1;fillColor=none;strokeColor=#994C00;" parent="1" vertex="1">
          <mxGeometry x="293.5" y="429" width="75" height="12.5" as="geometry" />
        </mxCell>
        <mxCell id="cvzFAE37gmTNGSHkUlID-166" value="2x Fondo de Emergencia" style="text;strokeColor=none;fillColor=none;align=center;verticalAlign=bottom;whiteSpace=wrap;rounded=0;fontSize=5;fontStyle=1" parent="1" vertex="1">
          <mxGeometry x="298.5" y="431.25" width="66" height="8" as="geometry" />
        </mxCell>
        <mxCell id="cvzFAE37gmTNGSHkUlID-168" value="" style="endArrow=classic;html=1;rounded=0;fontColor=#808080;strokeColor=#994C00;endSize=3;exitX=1;exitY=0.5;exitDx=0;exitDy=0;" parent="1" edge="1">
          <mxGeometry width="50" height="50" relative="1" as="geometry">
            <mxPoint x="436.5" y="402" as="sourcePoint" />
            <mxPoint x="457" y="435" as="targetPoint" />
            <Array as="points">
              <mxPoint x="456.5" y="402" />
            </Array>
          </mxGeometry>
        </mxCell>
        <mxCell id="cvzFAE37gmTNGSHkUlID-171" value="" style="endArrow=classic;html=1;rounded=0;fontColor=#808080;strokeColor=#7EA6E0;endSize=3;exitX=1;exitY=0.5;exitDx=0;exitDy=0;" parent="1" source="cvzFAE37gmTNGSHkUlID-146" edge="1">
          <mxGeometry width="50" height="50" relative="1" as="geometry">
            <mxPoint x="155" y="362" as="sourcePoint" />
            <mxPoint x="193" y="405" as="targetPoint" />
          </mxGeometry>
        </mxCell>
        <mxCell id="cvzFAE37gmTNGSHkUlID-174" value="" style="rounded=0;whiteSpace=wrap;html=1;fillColor=none;strokeColor=#FF6666;dashed=1;" parent="1" vertex="1">
          <mxGeometry x="308" y="242" width="77" height="63" as="geometry" />
        </mxCell>
        <mxCell id="cvzFAE37gmTNGSHkUlID-175" value="&lt;font style=&quot;font-size: 7px;&quot;&gt;&lt;b&gt;NOTA IMPORTANTE:&lt;/b&gt;&lt;/font&gt;" style="text;html=1;strokeColor=none;fillColor=none;align=center;verticalAlign=middle;whiteSpace=wrap;rounded=0;" parent="1" vertex="1">
          <mxGeometry x="308" y="245" width="77.5" height="10" as="geometry" />
        </mxCell>
        <mxCell id="cvzFAE37gmTNGSHkUlID-176" value="Si el gasto en primas de préstamos / créditos a altos intereses es considerable debemos priorizar su pago antes que los gastos no esenciales" style="text;strokeColor=none;fillColor=none;align=center;verticalAlign=bottom;whiteSpace=wrap;rounded=0;fontSize=5;" parent="1" vertex="1">
          <mxGeometry x="308" y="263.5" width="76" height="29" as="geometry" />
        </mxCell>
        <mxCell id="cvzFAE37gmTNGSHkUlID-177" value="" style="rounded=0;whiteSpace=wrap;html=1;fillColor=none;strokeColor=#7EA6E0;" parent="1" vertex="1">
          <mxGeometry x="498" y="425.25" width="85" height="20" as="geometry" />
        </mxCell>
        <mxCell id="cvzFAE37gmTNGSHkUlID-178" value="¿Tienes deuda a interés medio? " style="text;strokeColor=none;fillColor=none;align=center;verticalAlign=bottom;whiteSpace=wrap;rounded=0;fontSize=5;fontStyle=1" parent="1" vertex="1">
          <mxGeometry x="499" y="425" width="84" height="15" as="geometry" />
        </mxCell>
        <mxCell id="cvzFAE37gmTNGSHkUlID-167" value="" style="endArrow=classic;html=1;rounded=0;fontColor=#808080;strokeColor=#994C00;endSize=3;exitX=1;exitY=0.5;exitDx=0;exitDy=0;" parent="1" source="cvzFAE37gmTNGSHkUlID-164" edge="1">
          <mxGeometry width="50" height="50" relative="1" as="geometry">
            <mxPoint x="388.5" y="440" as="sourcePoint" />
            <mxPoint x="498.5" y="435" as="targetPoint" />
            <Array as="points">
              <mxPoint x="421.5" y="435" />
            </Array>
          </mxGeometry>
        </mxCell>
        <mxCell id="cvzFAE37gmTNGSHkUlID-180" value="&lt;font style=&quot;font-size: 9px;&quot;&gt;SI&lt;/font&gt;" style="text;html=1;strokeColor=none;fillColor=none;align=center;verticalAlign=middle;whiteSpace=wrap;rounded=0;" parent="1" vertex="1">
          <mxGeometry x="588" y="418" width="18" height="19" as="geometry" />
        </mxCell>
        <mxCell id="cvzFAE37gmTNGSHkUlID-181" value="" style="endArrow=classic;html=1;rounded=0;fontColor=#808080;strokeColor=#7EA6E0;endSize=3;exitX=1;exitY=0.5;exitDx=0;exitDy=0;" parent="1" source="cvzFAE37gmTNGSHkUlID-177" edge="1">
          <mxGeometry width="50" height="50" relative="1" as="geometry">
            <mxPoint x="608" y="435" as="sourcePoint" />
            <mxPoint x="618" y="435" as="targetPoint" />
          </mxGeometry>
        </mxCell>
        <mxCell id="cvzFAE37gmTNGSHkUlID-182" value="Revisa  si puedes reducir  los interés mas elevados a otros mas bajos" style="text;strokeColor=none;fillColor=none;align=center;verticalAlign=bottom;whiteSpace=wrap;rounded=0;fontSize=5;" parent="1" vertex="1">
          <mxGeometry x="623" y="425.5" width="66" height="21.5" as="geometry" />
        </mxCell>
        <mxCell id="cvzFAE37gmTNGSHkUlID-184" value="" style="rounded=0;whiteSpace=wrap;html=1;fillColor=none;strokeColor=#7EA6E0;" parent="1" vertex="1">
          <mxGeometry x="728" y="421" width="75" height="32" as="geometry" />
        </mxCell>
        <mxCell id="cvzFAE37gmTNGSHkUlID-185" value="Paga primero las interés mas elevado y después las demás en caso de existir" style="text;strokeColor=none;fillColor=none;align=center;verticalAlign=bottom;whiteSpace=wrap;rounded=0;fontSize=5;" parent="1" vertex="1">
          <mxGeometry x="733" y="425.5" width="66" height="21.5" as="geometry" />
        </mxCell>
        <mxCell id="cvzFAE37gmTNGSHkUlID-186" value="" style="endArrow=classic;html=1;rounded=0;fontColor=#808080;strokeColor=#7EA6E0;endSize=3;exitX=1;exitY=0.5;exitDx=0;exitDy=0;entryX=-0.019;entryY=0.429;entryDx=0;entryDy=0;entryPerimeter=0;" parent="1" edge="1">
          <mxGeometry width="50" height="50" relative="1" as="geometry">
            <mxPoint x="693" y="435.14" as="sourcePoint" />
            <mxPoint x="727" y="435.14" as="targetPoint" />
          </mxGeometry>
        </mxCell>
        <mxCell id="cvzFAE37gmTNGSHkUlID-187" value="" style="endArrow=classic;html=1;rounded=0;fontColor=#808080;strokeColor=#7EA6E0;endSize=3;exitX=0.5;exitY=1;exitDx=0;exitDy=0;entryX=0.88;entryY=1.019;entryDx=0;entryDy=0;entryPerimeter=0;" parent="1" source="cvzFAE37gmTNGSHkUlID-184" target="cvzFAE37gmTNGSHkUlID-177" edge="1">
          <mxGeometry width="50" height="50" relative="1" as="geometry">
            <mxPoint x="703" y="475.14" as="sourcePoint" />
            <mxPoint x="573" y="465" as="targetPoint" />
            <Array as="points">
              <mxPoint x="766" y="465" />
              <mxPoint x="573" y="465" />
            </Array>
          </mxGeometry>
        </mxCell>
        <mxCell id="cvzFAE37gmTNGSHkUlID-188" value="" style="endArrow=none;html=1;rounded=0;strokeColor=#7EA6E0;" parent="1" edge="1">
          <mxGeometry width="50" height="50" relative="1" as="geometry">
            <mxPoint x="818" y="340" as="sourcePoint" />
            <mxPoint x="818" y="475" as="targetPoint" />
          </mxGeometry>
        </mxCell>
        <mxCell id="cvzFAE37gmTNGSHkUlID-189" value="" style="endArrow=none;html=1;rounded=0;strokeColor=#7EA6E0;" parent="1" edge="1">
          <mxGeometry width="50" height="50" relative="1" as="geometry">
            <mxPoint x="499" y="455" as="sourcePoint" />
            <mxPoint x="38" y="455" as="targetPoint" />
          </mxGeometry>
        </mxCell>
        <mxCell id="cvzFAE37gmTNGSHkUlID-190" value="" style="endArrow=classic;html=1;rounded=0;fontColor=#808080;strokeColor=#B5739D;endSize=3;exitX=0.47;exitY=0.968;exitDx=0;exitDy=0;exitPerimeter=0;" parent="1" source="cvzFAE37gmTNGSHkUlID-177" edge="1">
          <mxGeometry width="50" height="50" relative="1" as="geometry">
            <mxPoint x="541" y="445" as="sourcePoint" />
            <mxPoint x="538" y="490" as="targetPoint" />
          </mxGeometry>
        </mxCell>
        <mxCell id="cvzFAE37gmTNGSHkUlID-191" value="&lt;font size=&quot;1&quot;&gt;NO&lt;/font&gt;" style="text;html=1;strokeColor=none;fillColor=none;align=center;verticalAlign=middle;whiteSpace=wrap;rounded=0;" parent="1" vertex="1">
          <mxGeometry x="518" y="445.25" width="18" height="19" as="geometry" />
        </mxCell>
        <mxCell id="cvzFAE37gmTNGSHkUlID-192" value="" style="endArrow=none;html=1;rounded=0;strokeColor=#7EA6E0;" parent="1" edge="1">
          <mxGeometry width="50" height="50" relative="1" as="geometry">
            <mxPoint x="559" y="475" as="sourcePoint" />
            <mxPoint x="818" y="475" as="targetPoint" />
          </mxGeometry>
        </mxCell>
        <mxCell id="cvzFAE37gmTNGSHkUlID-193" value="" style="endArrow=none;dashed=1;html=1;dashPattern=1 3;strokeWidth=1;rounded=0;endSize=1;jumpSize=1;startSize=1;strokeColor=#7EA6E0;" parent="1" edge="1">
          <mxGeometry width="50" height="50" relative="1" as="geometry">
            <mxPoint x="498" y="455" as="sourcePoint" />
            <mxPoint x="558" y="475" as="targetPoint" />
            <Array as="points">
              <mxPoint x="498" y="475" />
            </Array>
          </mxGeometry>
        </mxCell>
        <mxCell id="cvzFAE37gmTNGSHkUlID-194" value="" style="endArrow=none;html=1;rounded=0;strokeColor=#B5739D;" parent="1" edge="1">
          <mxGeometry width="50" height="50" relative="1" as="geometry">
            <mxPoint x="498" y="540" as="sourcePoint" />
            <mxPoint x="338" y="540" as="targetPoint" />
          </mxGeometry>
        </mxCell>
        <mxCell id="cvzFAE37gmTNGSHkUlID-196" value="&lt;span style=&quot;font-size: 7px;&quot;&gt;&lt;b&gt;Recursos Adicionales para la Sección 1:&lt;/b&gt;&lt;/span&gt;" style="text;html=1;strokeColor=none;fillColor=none;align=center;verticalAlign=middle;whiteSpace=wrap;rounded=0;" parent="1" vertex="1">
          <mxGeometry x="35" y="459" width="143" height="10" as="geometry" />
        </mxCell>
        <mxCell id="cvzFAE37gmTNGSHkUlID-197" value="" style="endArrow=none;html=1;rounded=0;strokeColor=#B5739D;" parent="1" edge="1">
          <mxGeometry width="50" height="50" relative="1" as="geometry">
            <mxPoint x="818" y="490" as="sourcePoint" />
            <mxPoint x="555" y="490" as="targetPoint" />
          </mxGeometry>
        </mxCell>
        <mxCell id="cvzFAE37gmTNGSHkUlID-198" value="" style="endArrow=none;html=1;rounded=0;strokeColor=#B5739D;" parent="1" edge="1">
          <mxGeometry width="50" height="50" relative="1" as="geometry">
            <mxPoint x="498" y="540" as="sourcePoint" />
            <mxPoint x="498" y="490" as="targetPoint" />
          </mxGeometry>
        </mxCell>
        <mxCell id="cvzFAE37gmTNGSHkUlID-199" value="" style="endArrow=none;html=1;rounded=0;strokeColor=#B5739D;" parent="1" edge="1">
          <mxGeometry width="50" height="50" relative="1" as="geometry">
            <mxPoint x="558" y="490" as="sourcePoint" />
            <mxPoint x="498" y="490" as="targetPoint" />
          </mxGeometry>
        </mxCell>
        <mxCell id="cvzFAE37gmTNGSHkUlID-201" value="" style="rounded=0;whiteSpace=wrap;html=1;fillColor=none;strokeColor=#B5739D;" parent="1" vertex="1">
          <mxGeometry x="513.5" y="504" width="111" height="25" as="geometry" />
        </mxCell>
        <mxCell id="cvzFAE37gmTNGSHkUlID-200" value="¿Dispones de acceso a un Plan de Propiedad de Acciones para Empleados? (ESOP / ESPP)" style="text;strokeColor=none;fillColor=none;align=center;verticalAlign=bottom;whiteSpace=wrap;rounded=0;fontSize=5;fontStyle=1" parent="1" vertex="1">
          <mxGeometry x="514.5" y="502" width="108.5" height="25" as="geometry" />
        </mxCell>
        <mxCell id="cvzFAE37gmTNGSHkUlID-202" value="" style="endArrow=classic;html=1;rounded=0;fontColor=#808080;strokeColor=#B5739D;endSize=3;exitX=1.001;exitY=0.433;exitDx=0;exitDy=0;exitPerimeter=0;" parent="1" source="cvzFAE37gmTNGSHkUlID-201" edge="1">
          <mxGeometry width="50" height="50" relative="1" as="geometry">
            <mxPoint x="628" y="516.39" as="sourcePoint" />
            <mxPoint x="653" y="515" as="targetPoint" />
          </mxGeometry>
        </mxCell>
        <mxCell id="cvzFAE37gmTNGSHkUlID-204" value="&lt;font style=&quot;font-size: 9px;&quot;&gt;SI&lt;/font&gt;" style="text;html=1;strokeColor=none;fillColor=none;align=center;verticalAlign=middle;whiteSpace=wrap;rounded=0;" parent="1" vertex="1">
          <mxGeometry x="628" y="498" width="18" height="19" as="geometry" />
        </mxCell>
        <mxCell id="cvzFAE37gmTNGSHkUlID-205" value="Analiza y comprende las condiciones y beneficios que ofrece" style="text;strokeColor=none;fillColor=none;align=center;verticalAlign=bottom;whiteSpace=wrap;rounded=0;fontSize=5;" parent="1" vertex="1">
          <mxGeometry x="654.75" y="501.5" width="64.25" height="25" as="geometry" />
        </mxCell>
        <mxCell id="cvzFAE37gmTNGSHkUlID-207" value="" style="endArrow=classic;html=1;rounded=0;fontColor=#808080;strokeColor=#B5739D;endSize=3;exitX=1.001;exitY=0.433;exitDx=0;exitDy=0;exitPerimeter=0;" parent="1" edge="1">
          <mxGeometry width="50" height="50" relative="1" as="geometry">
            <mxPoint x="720" y="515" as="sourcePoint" />
            <mxPoint x="738" y="515" as="targetPoint" />
          </mxGeometry>
        </mxCell>
        <mxCell id="cvzFAE37gmTNGSHkUlID-208" value="" style="rounded=0;whiteSpace=wrap;html=1;fillColor=none;strokeColor=#B5739D;" parent="1" vertex="1">
          <mxGeometry x="729" y="557.25" width="75.5" height="32.75" as="geometry" />
        </mxCell>
        <mxCell id="cvzFAE37gmTNGSHkUlID-209" value="En el caso de ofrecer un descuento en el precio, no conllevar período de vesting o este es inferior a 1 año y el beneficio sea superior al 10% después  de impuestos, se recomienda comprar y vender en cuanto sea posible" style="text;strokeColor=none;fillColor=none;align=center;verticalAlign=bottom;whiteSpace=wrap;rounded=0;fontSize=4;" parent="1" vertex="1">
          <mxGeometry x="730.13" y="558" width="73.25" height="33" as="geometry" />
        </mxCell>
        <mxCell id="cvzFAE37gmTNGSHkUlID-210" value="" style="rounded=0;whiteSpace=wrap;html=1;fillColor=none;strokeColor=#B5739D;" parent="1" vertex="1">
          <mxGeometry x="738.5" y="500" width="65.5" height="30" as="geometry" />
        </mxCell>
        <mxCell id="cvzFAE37gmTNGSHkUlID-211" value="" style="endArrow=classic;html=1;rounded=0;fontColor=#808080;strokeColor=#B5739D;endSize=3;exitX=0.5;exitY=1;exitDx=0;exitDy=0;entryX=0.562;entryY=-0.011;entryDx=0;entryDy=0;entryPerimeter=0;" parent="1" source="cvzFAE37gmTNGSHkUlID-210" target="cvzFAE37gmTNGSHkUlID-208" edge="1">
          <mxGeometry width="50" height="50" relative="1" as="geometry">
            <mxPoint x="770" y="540" as="sourcePoint" />
            <mxPoint x="788" y="540" as="targetPoint" />
          </mxGeometry>
        </mxCell>
        <mxCell id="cvzFAE37gmTNGSHkUlID-212" value="" style="endArrow=none;html=1;rounded=0;strokeColor=#B5739D;" parent="1" edge="1">
          <mxGeometry width="50" height="50" relative="1" as="geometry">
            <mxPoint x="818" y="610" as="sourcePoint" />
            <mxPoint x="818" y="490" as="targetPoint" />
          </mxGeometry>
        </mxCell>
        <mxCell id="cvzFAE37gmTNGSHkUlID-213" value="Contribuye el mínimo necesario para obtener la mayor retribución" style="text;strokeColor=none;fillColor=none;align=center;verticalAlign=bottom;whiteSpace=wrap;rounded=0;fontSize=5;fontStyle=1" parent="1" vertex="1">
          <mxGeometry x="738.5" y="501" width="64.5" height="25" as="geometry" />
        </mxCell>
        <mxCell id="cvzFAE37gmTNGSHkUlID-214" value="" style="endArrow=classic;html=1;rounded=0;fontColor=#808080;strokeColor=#B5739D;endSize=3;" parent="1" edge="1">
          <mxGeometry width="50" height="50" relative="1" as="geometry">
            <mxPoint x="568" y="529" as="sourcePoint" />
            <mxPoint x="568" y="555" as="targetPoint" />
          </mxGeometry>
        </mxCell>
        <mxCell id="cvzFAE37gmTNGSHkUlID-215" value="&lt;font style=&quot;font-size: 9px;&quot;&gt;NO&lt;/font&gt;" style="text;html=1;strokeColor=none;fillColor=none;align=center;verticalAlign=middle;whiteSpace=wrap;rounded=0;" parent="1" vertex="1">
          <mxGeometry x="571" y="528" width="18" height="19" as="geometry" />
        </mxCell>
        <mxCell id="cvzFAE37gmTNGSHkUlID-216" value="" style="rounded=0;whiteSpace=wrap;html=1;fillColor=none;strokeColor=#B5739D;" parent="1" vertex="1">
          <mxGeometry x="513" y="555" width="115" height="35" as="geometry" />
        </mxCell>
        <mxCell id="cvzFAE37gmTNGSHkUlID-220" value="&#xa;¿Esperas algún gasto considerable necesario o inversión necesaria en el medio plazo  (3 - 5 Años) ?&#xa;" style="text;strokeColor=none;fillColor=none;align=center;verticalAlign=middle;whiteSpace=wrap;rounded=0;fontSize=6;fontStyle=1" parent="1" vertex="1">
          <mxGeometry x="518" y="558" width="108" height="25" as="geometry" />
        </mxCell>
        <mxCell id="cvzFAE37gmTNGSHkUlID-221" value="" style="endArrow=classic;html=1;rounded=0;fontColor=#808080;strokeColor=#B5739D;endSize=3;entryX=1;entryY=0.5;entryDx=0;entryDy=0;exitX=0;exitY=0.5;exitDx=0;exitDy=0;" parent="1" target="cvzFAE37gmTNGSHkUlID-224" edge="1">
          <mxGeometry width="50" height="50" relative="1" as="geometry">
            <mxPoint x="512" y="575" as="sourcePoint" />
            <mxPoint x="470" y="575" as="targetPoint" />
          </mxGeometry>
        </mxCell>
        <mxCell id="cvzFAE37gmTNGSHkUlID-223" value="&lt;font style=&quot;font-size: 9px;&quot;&gt;SI&lt;/font&gt;" style="text;html=1;strokeColor=none;fillColor=none;align=center;verticalAlign=middle;whiteSpace=wrap;rounded=0;" parent="1" vertex="1">
          <mxGeometry x="484" y="557" width="18" height="19" as="geometry" />
        </mxCell>
        <mxCell id="cvzFAE37gmTNGSHkUlID-224" value="" style="rounded=0;whiteSpace=wrap;html=1;fillColor=none;strokeColor=#B5739D;" parent="1" vertex="1">
          <mxGeometry x="357" y="560" width="111" height="30" as="geometry" />
        </mxCell>
        <mxCell id="cvzFAE37gmTNGSHkUlID-225" value="Ahorra la cantidad necesaria para la inversión en una cuenta remunerada que ofrezca mejores rendimientos aunque tenga tiempo de retirada elevado" style="text;strokeColor=none;fillColor=none;align=center;verticalAlign=bottom;whiteSpace=wrap;rounded=0;fontSize=5;fontStyle=1" parent="1" vertex="1">
          <mxGeometry x="362.5" y="563" width="100" height="25" as="geometry" />
        </mxCell>
        <mxCell id="cvzFAE37gmTNGSHkUlID-226" value="" style="endArrow=none;html=1;rounded=0;strokeColor=#B5739D;" parent="1" edge="1">
          <mxGeometry width="50" height="50" relative="1" as="geometry">
            <mxPoint x="338" y="605" as="sourcePoint" />
            <mxPoint x="338" y="540" as="targetPoint" />
          </mxGeometry>
        </mxCell>
        <mxCell id="cvzFAE37gmTNGSHkUlID-227" value="Sección 2: Plan de propiedad de acciones  para empleados y Inversiones Esenciales" style="text;strokeColor=none;fillColor=none;align=center;verticalAlign=middle;whiteSpace=wrap;rounded=0;rotation=270;fontSize=5;fontColor=#B5739D;" parent="1" vertex="1">
          <mxGeometry x="285.12" y="563.38" width="72.5" height="19.75" as="geometry" />
        </mxCell>
        <mxCell id="cvzFAE37gmTNGSHkUlID-228" value="" style="endArrow=none;html=1;rounded=0;strokeColor=#B5739D;" parent="1" edge="1">
          <mxGeometry width="50" height="50" relative="1" as="geometry">
            <mxPoint x="818" y="610" as="sourcePoint" />
            <mxPoint x="423" y="610" as="targetPoint" />
          </mxGeometry>
        </mxCell>
        <mxCell id="cvzFAE37gmTNGSHkUlID-229" value="" style="endArrow=classic;html=1;rounded=0;fontColor=#808080;strokeColor=#336600;endSize=3;entryX=0.5;entryY=0;entryDx=0;entryDy=0;exitX=0.5;exitY=1;exitDx=0;exitDy=0;" parent="1" edge="1" target="ZUI7LjLpSaK66US2JeU9-1" source="cvzFAE37gmTNGSHkUlID-224">
          <mxGeometry width="50" height="50" relative="1" as="geometry">
            <mxPoint x="413" y="590" as="sourcePoint" />
            <mxPoint x="413" y="625" as="targetPoint" />
          </mxGeometry>
        </mxCell>
        <mxCell id="cvzFAE37gmTNGSHkUlID-230" value="" style="endArrow=none;html=1;rounded=0;strokeColor=#B5739D;dashed=1;dashPattern=1 2;" parent="1" edge="1">
          <mxGeometry width="50" height="50" relative="1" as="geometry">
            <mxPoint x="338" y="605" as="sourcePoint" />
            <mxPoint x="427" y="610" as="targetPoint" />
            <Array as="points">
              <mxPoint x="338" y="610" />
            </Array>
          </mxGeometry>
        </mxCell>
        <mxCell id="cvzFAE37gmTNGSHkUlID-231" value="" style="shape=ext;double=1;rounded=0;whiteSpace=wrap;html=1;strokeColor=#B5739D;fillColor=#B5739D;" parent="1" vertex="1">
          <mxGeometry x="35" y="537.5" width="273" height="70" as="geometry" />
        </mxCell>
        <mxCell id="cvzFAE37gmTNGSHkUlID-232" value="&lt;span style=&quot;font-size: 7px;&quot;&gt;&lt;b&gt;Recursos Adicionales para la Sección 2:&lt;/b&gt;&lt;/span&gt;" style="text;html=1;strokeColor=none;fillColor=none;align=center;verticalAlign=middle;whiteSpace=wrap;rounded=0;" parent="1" vertex="1">
          <mxGeometry x="35" y="537.5" width="143" height="10" as="geometry" />
        </mxCell>
        <mxCell id="cvzFAE37gmTNGSHkUlID-233" value="&lt;font style=&quot;font-size: 10px;&quot;&gt;NO&lt;/font&gt;" style="text;html=1;strokeColor=none;fillColor=none;align=center;verticalAlign=middle;whiteSpace=wrap;rounded=0;" parent="1" vertex="1">
          <mxGeometry x="130.5" y="349" width="60" height="30" as="geometry" />
        </mxCell>
        <mxCell id="cvzFAE37gmTNGSHkUlID-234" value="" style="endArrow=classic;html=1;rounded=0;fontColor=#808080;strokeColor=#7EA6E0;endSize=3;exitX=1;exitY=0.25;exitDx=0;exitDy=0;entryX=0.762;entryY=1.02;entryDx=0;entryDy=0;entryPerimeter=0;" parent="1" source="cvzFAE37gmTNGSHkUlID-146" target="cvzFAE37gmTNGSHkUlID-139" edge="1">
          <mxGeometry width="50" height="50" relative="1" as="geometry">
            <mxPoint x="134.3" y="368" as="sourcePoint" />
            <mxPoint x="134" y="358" as="targetPoint" />
            <Array as="points">
              <mxPoint x="133" y="397" />
            </Array>
          </mxGeometry>
        </mxCell>
        <mxCell id="ZUI7LjLpSaK66US2JeU9-1" value="" style="rounded=0;whiteSpace=wrap;html=1;fillColor=none;strokeColor=#336600;" vertex="1" parent="1">
          <mxGeometry x="357" y="631" width="111" height="74" as="geometry" />
        </mxCell>
        <mxCell id="ZUI7LjLpSaK66US2JeU9-2" value="¿Estas contribuyendo  un porcentaje igual a la mitad de tu edad de tus ingresos antes de impuestos a tu jubilación?" style="text;strokeColor=none;fillColor=none;align=center;verticalAlign=bottom;whiteSpace=wrap;rounded=0;fontSize=5;fontStyle=1" vertex="1" parent="1">
          <mxGeometry x="361" y="636" width="100" height="25" as="geometry" />
        </mxCell>
        <mxCell id="ZUI7LjLpSaK66US2JeU9-4" value="" style="endArrow=none;html=1;rounded=0;strokeColor=#336600;" edge="1" parent="1">
          <mxGeometry width="50" height="50" relative="1" as="geometry">
            <mxPoint x="820" y="620" as="sourcePoint" />
            <mxPoint x="425" y="620" as="targetPoint" />
          </mxGeometry>
        </mxCell>
        <mxCell id="ZUI7LjLpSaK66US2JeU9-5" value="(30 Años -&gt; 15 %)    (40 Años -&gt; 20 %)&#xa;(50 Años -&gt; 25 %)    (60 Años -&gt; 30 %)" style="text;strokeColor=none;fillColor=none;align=center;verticalAlign=bottom;whiteSpace=wrap;rounded=0;fontSize=5;fontStyle=0" vertex="1" parent="1">
          <mxGeometry x="361" y="661" width="100" height="15" as="geometry" />
        </mxCell>
        <mxCell id="ZUI7LjLpSaK66US2JeU9-6" value="Será necesario que contribuyas mas  si te encuentras por detrás en tus ahorros para la jubilación" style="text;strokeColor=none;fillColor=none;align=center;verticalAlign=bottom;whiteSpace=wrap;rounded=0;fontSize=5;fontStyle=0" vertex="1" parent="1">
          <mxGeometry x="361" y="685" width="100" height="15" as="geometry" />
        </mxCell>
        <mxCell id="ZUI7LjLpSaK66US2JeU9-7" value="" style="endArrow=classic;html=1;rounded=0;fontColor=#808080;strokeColor=#336600;endSize=3;exitX=1;exitY=0.5;exitDx=0;exitDy=0;" edge="1" parent="1" source="ZUI7LjLpSaK66US2JeU9-1">
          <mxGeometry width="50" height="50" relative="1" as="geometry">
            <mxPoint x="477" y="668.29" as="sourcePoint" />
            <mxPoint x="505" y="668" as="targetPoint" />
          </mxGeometry>
        </mxCell>
        <mxCell id="ZUI7LjLpSaK66US2JeU9-8" value="&lt;font style=&quot;font-size: 9px;&quot;&gt;NO&lt;/font&gt;" style="text;html=1;strokeColor=none;fillColor=none;align=center;verticalAlign=middle;whiteSpace=wrap;rounded=0;" vertex="1" parent="1">
          <mxGeometry x="475" y="650" width="18" height="19" as="geometry" />
        </mxCell>
        <mxCell id="ZUI7LjLpSaK66US2JeU9-9" value="" style="rounded=0;whiteSpace=wrap;html=1;fillColor=none;strokeColor=#336600;" vertex="1" parent="1">
          <mxGeometry x="506" y="660" width="115" height="15" as="geometry" />
        </mxCell>
        <mxCell id="ZUI7LjLpSaK66US2JeU9-10" value="¿Dispones de acceso a un Plan de Pensiones de Empleo?" style="text;strokeColor=none;fillColor=none;align=center;verticalAlign=bottom;whiteSpace=wrap;rounded=0;fontSize=5;fontStyle=1" vertex="1" parent="1">
          <mxGeometry x="513" y="659" width="100" height="16" as="geometry" />
        </mxCell>
        <mxCell id="ZUI7LjLpSaK66US2JeU9-11" value="&lt;font style=&quot;font-size: 9px;&quot;&gt;SI&lt;/font&gt;" style="text;html=1;strokeColor=none;fillColor=none;align=center;verticalAlign=middle;whiteSpace=wrap;rounded=0;" vertex="1" parent="1">
          <mxGeometry x="628" y="650" width="18" height="19" as="geometry" />
        </mxCell>
        <mxCell id="ZUI7LjLpSaK66US2JeU9-12" value="" style="endArrow=classic;html=1;rounded=0;fontColor=#808080;strokeColor=#336600;endSize=3;exitX=1;exitY=0.5;exitDx=0;exitDy=0;" edge="1" parent="1">
          <mxGeometry width="50" height="50" relative="1" as="geometry">
            <mxPoint x="621" y="668" as="sourcePoint" />
            <mxPoint x="658" y="668" as="targetPoint" />
          </mxGeometry>
        </mxCell>
        <mxCell id="ZUI7LjLpSaK66US2JeU9-13" value="" style="rounded=0;whiteSpace=wrap;html=1;fillColor=none;strokeColor=#336600;" vertex="1" parent="1">
          <mxGeometry x="658" y="654" width="65.5" height="30" as="geometry" />
        </mxCell>
        <mxCell id="ZUI7LjLpSaK66US2JeU9-14" value="Estudia y comprende las condiciones, garantías y beneficios que ofrece" style="text;strokeColor=none;fillColor=none;align=center;verticalAlign=bottom;whiteSpace=wrap;rounded=0;fontSize=5;" vertex="1" parent="1">
          <mxGeometry x="659.37" y="655" width="62.75" height="25" as="geometry" />
        </mxCell>
        <mxCell id="ZUI7LjLpSaK66US2JeU9-15" value="" style="endArrow=classic;html=1;rounded=0;fontColor=#808080;strokeColor=#336600;endSize=3;exitX=1;exitY=0.5;exitDx=0;exitDy=0;entryX=-0.005;entryY=0.409;entryDx=0;entryDy=0;entryPerimeter=0;" edge="1" parent="1" target="ZUI7LjLpSaK66US2JeU9-16">
          <mxGeometry width="50" height="50" relative="1" as="geometry">
            <mxPoint x="723.5" y="667.88" as="sourcePoint" />
            <mxPoint x="760.5" y="667.88" as="targetPoint" />
          </mxGeometry>
        </mxCell>
        <mxCell id="ZUI7LjLpSaK66US2JeU9-16" value="" style="rounded=0;whiteSpace=wrap;html=1;fillColor=none;strokeColor=#336600;" vertex="1" parent="1">
          <mxGeometry x="754" y="653" width="55" height="36" as="geometry" />
        </mxCell>
        <mxCell id="ZUI7LjLpSaK66US2JeU9-17" value="Contribuye el mínimo posible para llegar a tu porcentaje necesario en función de tu edad" style="text;strokeColor=none;fillColor=none;align=center;verticalAlign=bottom;whiteSpace=wrap;rounded=0;fontSize=5;" vertex="1" parent="1">
          <mxGeometry x="754" y="659" width="55" height="25.5" as="geometry" />
        </mxCell>
        <mxCell id="ZUI7LjLpSaK66US2JeU9-18" style="edgeStyle=orthogonalEdgeStyle;rounded=0;orthogonalLoop=1;jettySize=auto;html=1;exitX=0.5;exitY=1;exitDx=0;exitDy=0;" edge="1" parent="1" source="ZUI7LjLpSaK66US2JeU9-16" target="ZUI7LjLpSaK66US2JeU9-16">
          <mxGeometry relative="1" as="geometry" />
        </mxCell>
        <mxCell id="ZUI7LjLpSaK66US2JeU9-19" value="" style="endArrow=none;html=1;rounded=0;strokeColor=#336600;" edge="1" parent="1">
          <mxGeometry width="50" height="50" relative="1" as="geometry">
            <mxPoint x="820" y="740" as="sourcePoint" />
            <mxPoint x="820" y="620" as="targetPoint" />
          </mxGeometry>
        </mxCell>
        <mxCell id="ZUI7LjLpSaK66US2JeU9-20" value="&lt;font style=&quot;font-size: 9px;&quot;&gt;NO&lt;/font&gt;" style="text;html=1;strokeColor=none;fillColor=none;align=center;verticalAlign=middle;whiteSpace=wrap;rounded=0;" vertex="1" parent="1">
          <mxGeometry x="543.5" y="689" width="18" height="19" as="geometry" />
        </mxCell>
        <mxCell id="ZUI7LjLpSaK66US2JeU9-21" value="" style="endArrow=classic;html=1;rounded=0;fontColor=#808080;strokeColor=#336600;endSize=3;exitX=0.5;exitY=1;exitDx=0;exitDy=0;" edge="1" parent="1" source="ZUI7LjLpSaK66US2JeU9-10">
          <mxGeometry width="50" height="50" relative="1" as="geometry">
            <mxPoint x="571" y="715" as="sourcePoint" />
            <mxPoint x="608" y="715" as="targetPoint" />
            <Array as="points">
              <mxPoint x="563" y="715" />
            </Array>
          </mxGeometry>
        </mxCell>
        <mxCell id="ZUI7LjLpSaK66US2JeU9-22" value="" style="rounded=0;whiteSpace=wrap;html=1;fillColor=none;strokeColor=#336600;" vertex="1" parent="1">
          <mxGeometry x="609.75" y="705" width="115.25" height="20" as="geometry" />
        </mxCell>
        <mxCell id="ZUI7LjLpSaK66US2JeU9-23" value="Contribuye a un plan de pensiones privado  o una cuenta remunerada a alto interés " style="text;strokeColor=none;fillColor=none;align=center;verticalAlign=bottom;whiteSpace=wrap;rounded=0;fontSize=5;fontStyle=1" vertex="1" parent="1">
          <mxGeometry x="609.75" y="707" width="115.25" height="16" as="geometry" />
        </mxCell>
        <mxCell id="ZUI7LjLpSaK66US2JeU9-24" value="" style="endArrow=none;html=1;rounded=0;strokeColor=#336600;" edge="1" parent="1">
          <mxGeometry width="50" height="50" relative="1" as="geometry">
            <mxPoint x="335" y="740" as="sourcePoint" />
            <mxPoint x="820" y="740" as="targetPoint" />
          </mxGeometry>
        </mxCell>
        <mxCell id="ZUI7LjLpSaK66US2JeU9-25" value="" style="endArrow=none;html=1;rounded=0;strokeColor=#336600;" edge="1" parent="1">
          <mxGeometry width="50" height="50" relative="1" as="geometry">
            <mxPoint x="335" y="741" as="sourcePoint" />
            <mxPoint x="335" y="620" as="targetPoint" />
          </mxGeometry>
        </mxCell>
        <mxCell id="ZUI7LjLpSaK66US2JeU9-27" value="" style="endArrow=none;html=1;rounded=0;strokeColor=#336600;dashed=1;dashPattern=1 2;" edge="1" parent="1">
          <mxGeometry width="50" height="50" relative="1" as="geometry">
            <mxPoint x="335" y="620" as="sourcePoint" />
            <mxPoint x="424" y="620" as="targetPoint" />
            <Array as="points">
              <mxPoint x="335" y="620" />
            </Array>
          </mxGeometry>
        </mxCell>
        <mxCell id="ZUI7LjLpSaK66US2JeU9-28" value="" style="shape=ext;double=1;rounded=0;whiteSpace=wrap;html=1;strokeColor=#336600;fillColor=#B9E0A5;" vertex="1" parent="1">
          <mxGeometry x="35" y="630" width="266" height="105" as="geometry" />
        </mxCell>
        <mxCell id="ZUI7LjLpSaK66US2JeU9-29" value="&lt;span style=&quot;font-size: 7px;&quot;&gt;&lt;b&gt;Recursos Adicionales para la Sección 3:&lt;/b&gt;&lt;/span&gt;" style="text;html=1;strokeColor=none;fillColor=none;align=center;verticalAlign=middle;whiteSpace=wrap;rounded=0;" vertex="1" parent="1">
          <mxGeometry x="35" y="631" width="143" height="10" as="geometry" />
        </mxCell>
        <mxCell id="ZUI7LjLpSaK66US2JeU9-30" value="Sección 3: Aportaciones Adicionales al Plan de Pensiones y Inversiones Adicionales" style="text;strokeColor=none;fillColor=none;align=center;verticalAlign=middle;whiteSpace=wrap;rounded=0;rotation=270;fontSize=5;fontColor=#336600;" vertex="1" parent="1">
          <mxGeometry x="265" y="668.63" width="110.5" height="19.75" as="geometry" />
        </mxCell>
      </root>
    </mxGraphModel>
  </diagram>
</mxfile>
